<svg xmlns="http://www.w3.org/2000/svg" width="25" height="18" viewBox="0 0 28.324 25.918">
  <g id="hospital" transform="translate(0 -0.041)">
    <path id="Shape" d="M5.96,25.918a3.616,3.616,0,0,1-3.612-3.612V12.858l-.937.921A.83.83,0,1,1,.248,12.6L12.29.761a2.683,2.683,0,0,1,3.745,0L28.076,12.6a.83.83,0,1,1-1.164,1.184l-.937-.921v9.448a3.616,3.616,0,0,1-3.612,3.612Z" transform="translate(0 0.041)" fill="#02bc77"/>
    <path id="Shape-2" data-name="Shape" d="M4.33,11.972a.83.83,0,0,1-.83-.83V8.472H.83A.83.83,0,0,1,0,7.642V4.33A.83.83,0,0,1,.83,3.5H3.5V.83A.83.83,0,0,1,4.33,0H7.642a.83.83,0,0,1,.83.83V3.5h2.67a.83.83,0,0,1,.83.83V7.642a.83.83,0,0,1-.83.83H8.472v2.67a.83.83,0,0,1-.83.83Z" transform="translate(8.168 8.905)" fill="#ecfff8"/>
  </g>
</svg>
