<svg xmlns="http://www.w3.org/2000/svg" xmlns:xlink="http://www.w3.org/1999/xlink" viewBox="0 0 56 46">
  <defs>
    <clipPath id="clip-path">
      <rect fill="none"/>
    </clipPath>
  </defs>
  <g id="Symbol_41_1" data-name="Symbol 41 – 1" clip-path="url(#clip-path)">
    <path id="Caminho_73" data-name="Caminho 73" d="M308.88,2239.274a9.791,9.791,0,0,0-6.065,2.118,12.282,12.282,0,1,0-.478,15.018,9.818,9.818,0,1,0,6.543-17.136Zm-16.012,17.361a8.053,8.053,0,1,1,8.053-8.052A8.063,8.063,0,0,1,292.868,2256.636Zm16.012-1.955a5.52,5.52,0,0,1-4.371-2.18,12.006,12.006,0,0,0,.222-7.08,5.567,5.567,0,1,1,4.149,9.26Z" transform="translate(-269.809 -2236.292)" fill="#508ff4"/>
    <path id="Caminho_74" data-name="Caminho 74" d="M313.492,2249.869a19.811,19.811,0,0,0-11.844,3.709,28.073,28.073,0,0,0-4.461-.364c-11.187,0-20.6,6.51-21.893,15.142l-.352,2.352h44.491l-.352-2.352a14.07,14.07,0,0,0-1.373-4.237h13.233l-.352-2.352C329.572,2254.985,322.222,2249.869,313.492,2249.869Zm-33.274,16.719c2.217-5.413,9.024-9.255,16.97-9.255s14.751,3.842,16.97,9.255Zm41.2-6.589h-6.678a21.643,21.643,0,0,0-7.408-4.851,16.764,16.764,0,0,1,6.158-1.16c5.457,0,10.174,2.46,12.046,6.011Z" transform="translate(-274.941 -2224.707)" fill="#508ff4"/>
  </g>
</svg>
