<svg xmlns="http://www.w3.org/2000/svg" width="30" height="25" viewBox="0 0 36 35.999">
  <g id="Grupo_153" data-name="Grupo 153" transform="translate(-73.985 -277)">
    <path id="Caminho_24" data-name="Caminho 24" d="M735.705,1359.108a16.308,16.308,0,0,0,16.29-16.29V1341.6H736.919v-15.075h-1.214a16.289,16.289,0,1,0,0,32.579Zm-1.214-30.1v15.023h15.023a13.862,13.862,0,1,1-15.023-15.023Z" transform="translate(-645.43 -1046.109)" fill="#fff"/>
    <path id="Caminho_25" data-name="Caminho 25" d="M756.389,1339.886a16.8,16.8,0,0,0-16.778-16.777h-1.25v18.027h18.028Zm-15.528-1.25v-12.973a14.3,14.3,0,0,1,12.973,12.973Z" transform="translate(-646.404 -1046.109)" fill="#fbfdff"/>
  </g>
</svg>
