<svg xmlns="http://www.w3.org/2000/svg" xmlns:xlink="http://www.w3.org/1999/xlink" width="575" height="138" viewBox="0 0 575 138">
  <defs>
    <clipPath id="clip-path">
      <rect id="Ret칙ngulo_241" data-name="Ret칙ngulo 241" transform="translate(103 48)" fill="#fff" stroke="#707070" stroke-width="1"/>
    </clipPath>
  </defs>
  <g id="Grupo_de_m치scara_2" data-name="Grupo de m치scara 2" transform="translate(-103 -48)" clip-path="url(#clip-path)">
    <g id="Camada_2" data-name="Camada 2" transform="translate(133.657 48)">
      <g id="Camada_1" data-name="Camada 1">
        <path id="Caminho_298" data-name="Caminho 298" d="M136.547,42.543c-2.284-5.379-6.923-8.555-10.355-7.087-1.78.762-2.89,2.612-3.229,4.956a7.072,7.072,0,0,1-3.607,5.128l-6.4,3.565a7.976,7.976,0,0,1-10.6-2.669q-1.018-1.594-2.173-3.08a5.547,5.547,0,0,1,.294-7.19l11.254-12.108a8.769,8.769,0,0,1,6.241-2.875,5.451,5.451,0,0,0,4.377-1.906c2.287-2.939.438-8.243-4.159-11.841S108,3.3,105.692,6.241a5.055,5.055,0,0,0-.961,3.626,15.826,15.826,0,0,1-2.558,10.316L95.136,30.522a6.062,6.062,0,0,1-7.831,1.963,40.126,40.126,0,0,0-8.387-3.324,8.387,8.387,0,0,1-6.176-8.974h0A9.1,9.1,0,0,1,76.146,14,7.4,7.4,0,0,0,79.2,8.223C79.2,3.683,74.469,0,68.624,0S58.048,3.683,58.048,8.223A7.2,7.2,0,0,0,60.515,13.5a13.023,13.023,0,0,1,4.144,7.751l.084.61A6.039,6.039,0,0,1,60,28.593a40.11,40.11,0,0,0-4.72,1.281,12.962,12.962,0,0,1-14.964-5l-1.144-1.681a7.648,7.648,0,0,1-.942-6.584c.694-2.181.518-4.255-.69-5.692-2.4-2.859-7.976-2.131-12.448,1.628s-6.119,9.127-3.717,11.986a5.293,5.293,0,0,0,3.984,1.738,11.056,11.056,0,0,1,7.381,3.347l2.493,2.512A8.952,8.952,0,0,1,36,43.836a40.478,40.478,0,0,0-2.287,3.4A6.931,6.931,0,0,1,24.682,49.9l-.114-.057a7.377,7.377,0,0,1-3.923-4.9C20.126,42.7,18.914,41,17.129,40.37,13.6,39.142,9.188,42.619,7.27,48.14s-.614,10.984,2.913,12.2a5.741,5.741,0,0,0,5.28-1.167,8.719,8.719,0,0,1,6.649-1.605h0a7.145,7.145,0,0,1,5.89,7.6q-.107,1.472-.107,2.97v.1A15.25,15.25,0,0,1,19.036,82.2l-2.669,1.216a14.674,14.674,0,0,1-9.809.9,5.109,5.109,0,0,0-3.873.381c-3.256,1.83-3.572,7.442-.709,12.532s7.823,7.735,11.079,5.9a5.2,5.2,0,0,0,2.394-3.378,12.615,12.615,0,0,1,5.215-7.522l.3-.2a13.135,13.135,0,0,1,16.664,2.432l.122.141a8.582,8.582,0,0,1,0,11.342l-.5.56a7.3,7.3,0,0,1-5.074,2.5,5.568,5.568,0,0,0-4.522,2.192c-2.108,3.084.091,8.254,4.914,11.552s10.438,3.469,12.547.381c1.186-1.735,1.01-4.129-.233-6.481a5.456,5.456,0,0,1,0-5.177l1-1.822a7.373,7.373,0,0,1,8.917-3.431l.149.053a12.41,12.41,0,0,1,8.265,12.863l-.168,1.819a8.738,8.738,0,0,1-3.157,6.039,5.418,5.418,0,0,0-2.287,4.144c-.034,3.732,4.67,6.805,10.511,6.862s10.606-2.924,10.641-6.66a5.852,5.852,0,0,0-2.928-4.727,8.185,8.185,0,0,1-3.637-5.97L71.91,117.7a10.08,10.08,0,0,1,7.331-10.675q1.5-.419,2.947-.953a8.422,8.422,0,0,1,9.34,2.551l8.822,10.568a8.239,8.239,0,0,1,1.792,6.226,5.449,5.449,0,0,0,1.331,4.575c2.627,2.669,8.121,1.475,12.272-2.634s5.372-9.55,2.745-12.219a5.2,5.2,0,0,0-3.893-1.414,12.615,12.615,0,0,1-8.628-3.05l-6.432-5.692a7.457,7.457,0,0,1-.717-10.389,40.532,40.532,0,0,0,3.778-5.12,8.422,8.422,0,0,1,10.984-3.05l.13.065a5.875,5.875,0,0,1,3.05,4.11c.5,2.5,1.864,4.464,3.9,5.219,3.793,1.4,8.506-1.906,10.526-7.392s.583-11.056-3.206-12.455a6.577,6.577,0,0,0-6.275,1.376,6.454,6.454,0,0,1-5.223,1.144L114.08,78a6.862,6.862,0,0,1-5.486-7.141q.088-1.338.088-2.7,0-1.09-.057-2.165a9.31,9.31,0,0,1,6.367-9.356l8.5-2.8a7.709,7.709,0,0,1,6.134.568,5.5,5.5,0,0,0,4.842.511C137.892,53.462,138.826,47.919,136.547,42.543ZM77.679,64.049l-5.7,28.121a3.184,3.184,0,0,0,.953,2.551,3.2,3.2,0,0,1-1.864,5.166,17.537,17.537,0,0,1-7.949-.255A6.629,6.629,0,0,1,58.167,92.1l5.753-28.391a3.313,3.313,0,0,0-1.144-2.638,2.882,2.882,0,0,1,1.548-4.724,17.577,17.577,0,0,1,8.349.05A6.86,6.86,0,0,1,77.679,64.049ZM74,50.991a8.822,8.822,0,1,0,0-.019Z" fill="#2482bc"/>
        <path id="Caminho_299" data-name="Caminho 299" d="M184.721,98.151a29.078,29.078,0,0,1-10.728-10.812,29.87,29.87,0,0,1-3.957-15.177,30.822,30.822,0,0,1,3.812-15.3,27.919,27.919,0,0,1,10.48-10.675,29.364,29.364,0,0,1,14.991-3.866,36.256,36.256,0,0,1,8.818,1.083l.088.023a8.46,8.46,0,0,1,6.161,9.684l-.061.343a5.337,5.337,0,0,1-6.359,4.316,25.543,25.543,0,0,0-5.482-.64q-6.653,0-10.229,3.866t-3.576,11.1q0,7.068,3.786,11.022t10.522,3.95a22.219,22.219,0,0,0,4.815-.522h.046a5.437,5.437,0,0,1,6.538,4.358h0a8.857,8.857,0,0,1-6.283,10.133,31.609,31.609,0,0,1-8.284,1.075,29.432,29.432,0,0,1-15.1-3.957Z" fill="#2482bc"/>
        <path id="Caminho_300" data-name="Caminho 300" d="M233.875,98.277a27.415,27.415,0,0,1-10.812-10.591A30.588,30.588,0,0,1,219.2,72.257,30.989,30.989,0,0,1,223.063,56.7a27.068,27.068,0,0,1,10.812-10.6,35.474,35.474,0,0,1,31.853-.011A27.16,27.16,0,0,1,276.54,56.653a30.867,30.867,0,0,1,3.866,15.593,30.588,30.588,0,0,1-3.866,15.429,27.347,27.347,0,0,1-10.854,10.6,35.085,35.085,0,0,1-31.811,0ZM258.412,82.89q3.37-4.076,3.366-10.728a19.132,19.132,0,0,0-1.525-7.861,12.924,12.924,0,0,0-4.285-5.406,10.5,10.5,0,0,0-6.252-1.956,10.362,10.362,0,0,0-6.153,1.956,12.627,12.627,0,0,0-4.243,5.406,19.577,19.577,0,0,0-1.5,7.861q0,6.657,3.328,10.728a11.174,11.174,0,0,0,17.259,0Z" fill="#2482bc"/>
        <path id="Caminho_301" data-name="Caminho 301" d="M294.016,43.55h0a8.856,8.856,0,0,1,8.6,6.732l7.152,28.949,7.152-28.948a8.856,8.856,0,0,1,8.6-6.733h.648a8.856,8.856,0,0,1,8.452,11.5L323.467,90.736a14.312,14.312,0,0,1-13.66,10.046h0a14.313,14.313,0,0,1-13.726-10.247l-10.556-35.6a8.856,8.856,0,0,1,8.49-11.384Z" fill="#2482bc"/>
        <path id="Caminho_302" data-name="Caminho 302" d="M386.1,60.309h0a6.481,6.481,0,0,1,6.165,8.483h0q7.957-9.645,18.437-9.645,7.983,0,10.675,5.7T420.788,80.6l-4.731,14.56a9.016,9.016,0,0,1-8.578,6.23H405.4a6.424,6.424,0,0,1-6.1-8.406l4.575-14.133q1.144-3.576.244-5.49t-3.66-1.906a9.039,9.039,0,0,0-4.327,1.289,15.147,15.147,0,0,0-4.323,3.7,16.6,16.6,0,0,0-2.989,5.49l-4.472,13.755a8.25,8.25,0,0,1-7.846,5.719h-4.461a5.154,5.154,0,0,1-4.907-6.763l8.769-26.924A10.732,10.732,0,0,1,386.1,60.309Z" fill="#2482bc"/>
        <path id="Caminho_303" data-name="Caminho 303" d="M435.435,70.038h0a3.812,3.812,0,0,1-3.622-4.983l.6-1.853a5.033,5.033,0,0,1,4.789-3.477h1.582l1.144-3.492q3-9.23,8.99-13.973a22.921,22.921,0,0,1,18.262-4.331,6.191,6.191,0,0,1,4.506,8.265h0A8.09,8.09,0,0,1,465,51.369a17.239,17.239,0,0,1-1.99.16,7.171,7.171,0,0,0-4.217,1.2,6.515,6.515,0,0,0-2.451,3.45v.042a2.669,2.669,0,0,0,2.528,3.5h1.979a4.35,4.35,0,0,1,4.137,5.692h0a6.687,6.687,0,0,1-6.359,4.621h-5.62l-7.652,23.549a11.3,11.3,0,0,1-10.762,7.819h0a6.786,6.786,0,0,1-6.454-8.883Z" fill="#2482bc"/>
        <path id="Caminho_304" data-name="Caminho 304" d="M469.88,99.314a13,13,0,0,1-6.008-7.625q-1.456-4.865.6-11.186a28.891,28.891,0,0,1,6.714-11.186,32.5,32.5,0,0,1,10.972-7.526,33.893,33.893,0,0,1,13.3-2.669q7.068,0,11.639,2.7a12.733,12.733,0,0,1,5.989,7.56q1.426,4.827-.625,11.144a29.355,29.355,0,0,1-6.7,11.27,32.539,32.539,0,0,1-10.942,7.568,33.732,33.732,0,0,1-13.393,2.7A22.139,22.139,0,0,1,469.88,99.314Zm22.2-12.268a13.934,13.934,0,0,0,4.327-6.531q1.3-3.992-.084-6.531a4.98,4.98,0,0,0-4.788-2.535,9.875,9.875,0,0,0-6.439,2.535,13.919,13.919,0,0,0-4.327,6.531q-1.3,3.992.084,6.531a4.98,4.98,0,0,0,4.788,2.535,9.815,9.815,0,0,0,6.439-2.531Z" fill="#2482bc"/>
        <path id="Caminho_305" data-name="Caminho 305" d="M346.494,100.725a6.805,6.805,0,0,1-4.712-8.8l8.307-24.9c.332-1.018-.263-2.154-1.1-3.149a3.206,3.206,0,0,1,1.525-5.193,21.074,21.074,0,0,1,10.854-.213,7.068,7.068,0,0,1,4.758,8.948l-8.2,24.583a3.276,3.276,0,0,0,.652,2.844,3.988,3.988,0,0,1-2.5,6.119A20.416,20.416,0,0,1,346.494,100.725Z" fill="#2482bc"/>
        <path id="Caminho_306" data-name="Caminho 306" d="M372.808,44.022a9.439,9.439,0,0,1-9.108,8.113,7.028,7.028,0,0,1-7.118-8.113,9.439,9.439,0,0,1,9.108-8.113A7.028,7.028,0,0,1,372.808,44.022Z" fill="#2482bc"/>
      </g>
    </g>
  </g>
</svg>
