<svg xmlns="http://www.w3.org/2000/svg" xmlns:xlink="http://www.w3.org/1999/xlink" width="229" height="227" viewBox="0 0 229 227">
  <defs>
    <clipPath id="clip-path">
      <ellipse id="Elipse_6" data-name="Elipse 6" cx="114.5" cy="113.5" rx="114.5" ry="113.5" transform="translate(1313 180)" fill="#fff" stroke="#707070" stroke-width="1"/>
    </clipPath>
  </defs>
  <g id="Grupo_de_máscara_1" data-name="Grupo de máscara 1" transform="translate(-1313 -180)" clip-path="url(#clip-path)">
    <g id="Camada_2" data-name="Camada 2" transform="translate(1314.18 180)">
      <g id="Camada_1" data-name="Camada 1">
        <path id="Caminho_44" data-name="Caminho 44" d="M224.592,69.975c-3.755-8.844-11.381-14.07-17.033-11.666-2.933,1.245-4.757,4.292-5.309,8.174a11.628,11.628,0,0,1-5.93,8.436L185.8,80.78a13.117,13.117,0,0,1-17.448-4.407q-1.672-2.62-3.576-5.066a9.141,9.141,0,0,1,.48-11.83l18.511-19.916a14.439,14.439,0,0,1,10.284-4.727,8.978,8.978,0,0,0,7.195-3.119c3.786-4.837.72-13.559-6.856-19.482s-16.759-6.8-20.567-1.965a8.3,8.3,0,0,0-1.581,5.961,26.021,26.021,0,0,1-4.19,16.964l-11.586,17a9.968,9.968,0,0,1-12.87,3.237,66,66,0,0,0-13.757-5.469A13.8,13.8,0,0,1,119.675,33.2h0a14.969,14.969,0,0,1,5.6-10.177,12.216,12.216,0,0,0,4.982-9.5C130.26,6.056,122.486,0,112.88,0S95.486,6.056,95.486,13.525a11.823,11.823,0,0,0,4.06,8.68,21.42,21.42,0,0,1,6.814,12.748l.137,1a9.929,9.929,0,0,1-7.808,11.072,65.971,65.971,0,0,0-7.739,2.106,21.329,21.329,0,0,1-24.608-8.219l-1.859-2.765A12.569,12.569,0,0,1,62.936,27.32c1.143-3.588.849-7-1.143-9.362-3.954-4.7-13.117-3.5-20.472,2.666S31.209,35.631,35.163,40.331a8.673,8.673,0,0,0,6.555,2.86A18.181,18.181,0,0,1,53.856,48.7l4.1,4.129A14.721,14.721,0,0,1,59.23,72.081,66.574,66.574,0,0,0,55.444,77.7a11.4,11.4,0,0,1-14.854,4.38l-.19-.1a12.135,12.135,0,0,1-6.452-8.056c-.853-3.687-2.849-6.475-5.778-7.5-5.8-2.019-13.064,3.7-16.218,12.778s-1.006,18.054,4.807,20.072c2.765.964,5.862.164,8.688-1.9A14.34,14.34,0,0,1,36.366,94.7h0a11.75,11.75,0,0,1,9.69,12.5q-.175,2.419-.179,4.887v.16a25.066,25.066,0,0,1-14.591,22.959l-4.392,2a24.132,24.132,0,0,1-16.138,1.47,8.426,8.426,0,0,0-6.376.6C-.975,142.3-1.5,151.528,3.215,159.9s12.87,12.721,18.221,9.709a8.565,8.565,0,0,0,3.942-5.557,20.723,20.723,0,0,1,8.6-12.356l.5-.328c8.509-5.553,20.788-3.71,27.423,4l.2.236a14.119,14.119,0,0,1,0,18.663l-.815.922a12.017,12.017,0,0,1-8.353,4.1c-3.207.152-5.9,1.348-7.439,3.6-3.466,5.069.152,13.578,8.082,19s17.17,5.713,20.636.64c1.95-2.853,1.657-6.791-.381-10.665a8.97,8.97,0,0,1,0-8.516l1.645-3a12.127,12.127,0,0,1,14.664-5.626l.244.088a20.407,20.407,0,0,1,13.586,21.158l-.278,2.994a14.371,14.371,0,0,1-5.2,9.933,8.956,8.956,0,0,0-3.759,6.814c-.061,6.144,7.682,11.2,17.288,11.289s17.444-4.81,17.52-10.954c.03-3.005-1.809-5.747-4.818-7.777a13.464,13.464,0,0,1-6.01-9.83l-.472-4.841a16.58,16.58,0,0,1,12.059-17.558q2.464-.693,4.849-1.565a13.856,13.856,0,0,1,15.365,4.19l14.508,17.387a13.552,13.552,0,0,1,2.933,10.261,8.981,8.981,0,0,0,2.186,7.534c4.319,4.365,13.357,2.426,20.186-4.331s8.859-15.776,4.555-20.141a8.575,8.575,0,0,0-6.4-2.331,20.773,20.773,0,0,1-14.191-5.028l-10.577-9.366a12.264,12.264,0,0,1-1.177-17.086,66.655,66.655,0,0,0,6.212-8.425,13.852,13.852,0,0,1,18.065-5.043l.213.11a9.667,9.667,0,0,1,5.016,6.761c.83,4.121,3.047,7.343,6.418,8.581,6.239,2.285,13.99-3.142,17.311-12.158s.964-18.187-5.275-20.487c-3.31-1.223-7.05-.259-10.326,2.262a10.615,10.615,0,0,1-8.593,1.9l-3.961-.8a11.263,11.263,0,0,1-9.027-11.746q.145-2.2.149-4.437,0-1.794-.1-3.565a15.315,15.315,0,0,1,10.474-15.387l13.974-4.6a12.679,12.679,0,0,1,10.086.983c2.708,1.489,5.519,1.874,7.96.838C226.8,87.933,228.347,78.819,224.592,69.975ZM127.769,105.32l-9.37,46.269c-.289,1.413.468,2.883,1.569,4.19a5.263,5.263,0,0,1-3.047,8.5,28.863,28.863,0,0,1-13.075-.423c-5.736-1.6-9.232-7.054-8.143-12.375l9.465-46.7c.289-1.405-.636-2.967-1.9-4.342a4.74,4.74,0,0,1,2.548-7.77,28.945,28.945,0,0,1,13.734.084C125.171,94.32,128.839,100.094,127.769,105.32Zm-6.048-21.478a11.407,11.407,0,1,1,11.407-11.407,11.407,11.407,0,0,1-11.407,11.407Z" fill="#2482bc"/>
      </g>
    </g>
  </g>
</svg>
