<svg xmlns="http://www.w3.org/2000/svg" xmlns:xlink="http://www.w3.org/1999/xlink" width="700" height="750" viewBox="0 0 860.177 885.903">
  <defs>
    <clipPath id="clip-path">
      <rect id="Retângulo_4" data-name="Retângulo 4" width="645.91" height="806.553" fill="none"/>
    </clipPath>
  </defs>
  <g id="Business_error___comment_review_account_profile_user_list_problem" data-name="Business, error _ comment, review, account, profile, user, list, problem" transform="translate(-46.38 -52.26)">
    <path id="Caminho_1" data-name="Caminho 1" d="M751.9,243.67c-4.16-11.54-8.79-23-13.86-34.14-10.1-22.17-12.42-43.18-26.61-61.72" transform="translate(-36.256)" fill="none" stroke="#ccdde2" stroke-miterlimit="10" stroke-width="7.24"/>
    <path id="Caminho_2" data-name="Caminho 2" d="M678.54,126.56c-12.21-12.42-23.63-25.77-44.38-35.74-43.85-21-99.92-23.13-171.49,6.57" transform="translate(-28.42)" fill="none" stroke="#ccdde2" stroke-miterlimit="10" stroke-width="7.24"/>
    <path id="Caminho_3" data-name="Caminho 3" d="M161.78,940.48C92.43,842.45,70,731.62,81.59,618.27" transform="translate(0 -5.957)" fill="none" stroke="#ccdde2" stroke-miterlimit="10" stroke-width="7.24"/>
    <path id="Caminho_4" data-name="Caminho 4" d="M790.92,457.89v1.21c-.68,22,19.65,113.2,77.31,142.17S967,757.4,837,807.29,714.08,940.48,714.08,940.48" transform="translate(-47.114 -5.957)" fill="none" stroke="#ccdde2" stroke-miterlimit="10" stroke-width="7.24"/>
    <path id="Caminho_5" data-name="Caminho 5" d="M462.66,191.55V83.81a28,28,0,0,0-27.93-27.93H77.93A28,28,0,0,0,50,83.81v506.6a27.92,27.92,0,0,0,27.93,27.87h356.8a26.4,26.4,0,0,0,10.1-1.94" fill="none" stroke="#000" stroke-linecap="round" stroke-linejoin="round" stroke-width="7.24"/>
    <rect id="Retângulo_2" data-name="Retângulo 2" width="387.6" height="528.31" rx="24.95" transform="translate(62.53 72.95)" fill="#3fbdf1"/>
    <rect id="Retângulo_3" data-name="Retângulo 3" width="346.2" height="98.92" rx="12.48" transform="translate(85.35 113.83)" fill="#3fbdf1"/>
    <circle id="Elipse_1" data-name="Elipse 1" cx="10.23" cy="10.23" r="10.23" transform="translate(235.595 135.03)" fill="#d7e8f0"/>
    <path id="Caminho_6" data-name="Caminho 6" d="M227.74,191.55a28.59,28.59,0,1,1,57.18,0Z" transform="translate(-9.936)" fill="#d7e8f0"/>
    <path id="Caminho_7" data-name="Caminho 7" d="M258.41,318.74a55.13,55.13,0,1,0,55.1,55.11A55.13,55.13,0,0,0,258.41,318.74Zm0,96.91a8.045,8.045,0,1,1,8.045-8.045,8.045,8.045,0,0,1-8.045,8.045Zm10.21-62c-1.73,11.94-3.19,24.53-6.7,36.14-.86,2.76-6.1,2.76-7,0a204.855,204.855,0,0,1-5.78-26.63c-1.08-6.54-4.91-17.12-1.24-23.5,3.19-5.67,12.26-6.37,17.5-3.4,6.51,3.74,3.97,11.49,3.22,17.43Z" transform="translate(-9.143 -2.013)" fill="#d7e8f0"/>
    <line id="Linha_1" data-name="Linha 1" x2="269.19" transform="translate(119.97 255.562)" fill="none" stroke="#fff" stroke-miterlimit="10" stroke-width="7.24"/>
    <line id="Linha_2" data-name="Linha 2" x2="269.19" transform="translate(119.97 281.874)" fill="none" stroke="#fff" stroke-miterlimit="10" stroke-width="7.24"/>
    <line id="Linha_3" data-name="Linha 3" x2="269.19" transform="translate(119.97 451.36)" fill="none" stroke="#fff" stroke-miterlimit="10" stroke-width="7.24"/>
    <line id="Linha_4" data-name="Linha 4" x2="144.13" transform="translate(182.5 476.252)" fill="none" stroke="#fff" stroke-miterlimit="10" stroke-width="7.24"/>
    <path id="Caminho_8" data-name="Caminho 8" d="M148.57,643.2s47.9-190.34,197.09-236.83L406.3,391.9s9.59-42.83,6.06-47.33-10.78-13.72-24.06-11.72-47.61,2.64-56.4-39.33S355.59,151.79,440,136.87s86.38,47.06,86.38,47.06l-62,143.67L474,443.5l1.21,172.65Z" fill="#fff"/>
    <g id="Grupo_1" data-name="Grupo 1" transform="translate(111.11 131.61)" clip-path="url(#clip-path)">
      <path id="Caminho_9" data-name="Caminho 9" d="M664.12,495.593c-1,.288-13.76,3.971-18.78,12.746a11.807,11.807,0,0,0-10.68-6.71H484.81a11.752,11.752,0,0,0-11.49,9.063l-29.51,125.6c-2-.387-4-.625-6.08-.824l-69.64-17.253a12.4,12.4,0,0,0-14.68,7.812,11.577,11.577,0,0,0-.68,4.03,12.357,12.357,0,0,0,11.54,12.289l32.93,2.1c-31.72,14.82-70.31,43.052-102.52,68.99-31.34-48.71-1.93-97.411,20.19-123.637-2.85-28.907-17.29-96.021-89.34-94.194,24.82-31.6,55.77-58.677,94.12-76.8,131.36,144.533,281.64,26.365,284.83,23.824a263.7,263.7,0,0,1,59.64,52.979" transform="translate(-111.11 -133.715)" fill="#2e2e2e"/>
      <path id="Caminho_10" data-name="Caminho 10" d="M650.47,912.483v24.976H216.66V902.08c16.9.993,34.68-2.978,50.85-10.215,20.47-9.252,38.15-23.625,53.27-40.024,15.55-16.975,24.09-40.511,34-60.98,14.88-30.822,34.59-52.78,65.87-62.082l-2,8.537a11.668,11.668,0,0,0,2.253,9.941,11.852,11.852,0,0,0,9.237,4.443h150.6c-3,25.809-15.65,166.768,69.73,160.812" transform="translate(-111.11 -135.988)" fill="#2e2e2e"/>
      <path id="Caminho_11" data-name="Caminho 11" d="M580.81,251.311a164,164,0,0,1-5.22,39.578,32.969,32.969,0,0,1-26.12,24.41c-.25-9.013-4.11-16.925-10-21.839a142.618,142.618,0,0,0-.23-22.911c-.39-5.033-1-9.728-1.64-13.947a51.412,51.412,0,0,0-1.65-7.1,25.6,25.6,0,0,0-7-5.271c-9.27-5.182-28.35-10.691-63.7-2.591a42.464,42.464,0,0,0-15.94,7.336,1.2,1.2,0,0,0-.28.238c-3.19,2.918-7.25,6.611-11.45,8.527-4.35,1.985-8.89,2.065-12.7-2.631-.1-.1-.15-.189-.24-.288-2-2.591-3.91-5.956-7.44-6.621-7.44-1.39-11.06,5.956-12,12.13-.82,5.708.87,10.741,3.34,15.535a40.018,40.018,0,0,0,8,10.453,20.377,20.377,0,0,1,2.27,2.581,5.087,5.087,0,0,0-.91.248,16.645,16.645,0,0,0-2,.814c-9,4.02-15.41,14.1-15.55,25.889,0,.367-15.09.149-17,0-7.36-.675-14.61-2.779-19.79-8.289-14.7-15.635-14.63-38.833-8.59-56.979a236.269,236.269,0,0,1,22.54-49.534c20.67-33.532,52.74-58.27,93.34-60.493a135.518,135.518,0,0,1,29.11,1.688,110.582,110.582,0,0,1,13.47,2.978c41.39,17.928,67.66,58.567,67.42,106.087" transform="translate(-111.11 -131.674)" fill="#2e2e2e"/>
      <path id="Caminho_12" data-name="Caminho 12" d="M556.84,637.007c-4.89,12.458-16.53,19.585-26,15.883s-13.19-16.726-8.31-29.185,16.53-19.6,26-15.883,13.2,16.736,8.31,29.194" transform="translate(-111.11 -135.094)" fill="#3fbdf1"/>
      <path id="Caminho_13" data-name="Caminho 13" d="M582,746.763s-26.56,183.793,79.68,163.423c105.66-20.28,145.65-446.979-160.19-508.346" transform="translate(-111.11 -133.591)" fill="none" stroke="#000" stroke-miterlimit="10" stroke-width="7.24"/>
      <path id="Caminho_14" data-name="Caminho 14" d="M333.26,571.06s-85.72,71.76-39.53,143.53" transform="translate(-111.11 -134.832)" fill="none" stroke="#000" stroke-miterlimit="10" stroke-width="7.24"/>
      <path id="Caminho_15" data-name="Caminho 15" d="M583.93,697.738c-1.47.089-3.57-.883-5-1.271q-2.72-.715-5.39-1.529a98.275,98.275,0,0,1-29.07-14.612c-2-1.419-5.56-2.333-8-1.4a8.024,8.024,0,0,0-5.2,6.323c-.75,5.122,2.89,10.135,6.86,13.421,4.71,3.911,9.6,7.515,15.31,9.857a107.39,107.39,0,0,0,17,5.192c2.63.606,5.3.993,7.91,1.658" transform="translate(-111.11 -135.62)" fill="none" stroke="#000" stroke-miterlimit="10" stroke-width="7.24"/>
      <path id="Caminho_16" data-name="Caminho 16" d="M616.83,647.79c1.08,5.658,1.87,11.535,1.33,17.282-.45,4.864-2.21,10.542-7.66,11.723a9.645,9.645,0,0,1-3.18.288c-20.52-1.2-37.43-8.239-56.74-22.1s-26.11,18.057-8.47,23.715" transform="translate(-111.11 -135.394)" fill="none" stroke="#000" stroke-miterlimit="10" stroke-width="7.24"/>
      <path id="Caminho_17" data-name="Caminho 17" d="M542.85,702.671a15.964,15.964,0,0,1-1.35-1.241c-9.61-9.976-11.35,10.066-1.26,15.962l1.3.764c.68.288,1.41.625,2.13.993.34.089.72.238,1.07.338,9.12,3.971,18.83,6.512,28.39,9.1-9.46-3.067-18.89-6.085-28.39-9.1-.82-.338-1.6-.675-2.42-1.062a4.221,4.221,0,0,0-.78-.238,1.077,1.077,0,0,0-1.06.1A1.468,1.468,0,0,0,540,719c-1.55,3.693-.29,8.348,1.69,11.654,2.08,3.494,5.65,6.184,9.17,8.1,9.47,5.271,20.48,8.388,31.11,10.254a21.8,21.8,0,0,0,6,.387" transform="translate(-111.11 -135.767)" fill="none" stroke="#000" stroke-miterlimit="10" stroke-width="7.24"/>
      <path id="Caminho_18" data-name="Caminho 18" d="M673.72,771.65s-32.59-55.133-36.22-103.069c-2.22-29.671-11-35.954-17.28-36.381" transform="translate(-111.11 -135.28)" fill="none" stroke="#000" stroke-miterlimit="10" stroke-width="7.24"/>
      <path id="Caminho_19" data-name="Caminho 19" d="M610.5,675.719l6.34-29,3.38-15.486,25.06-114.812a11.659,11.659,0,0,0-2.354-9.834,11.843,11.843,0,0,0-9.186-4.361H483.88a11.762,11.762,0,0,0-11.49,9.063L442.88,636.905l-21.54,91.653-2,8.587a11.677,11.677,0,0,0,2.266,9.934,11.862,11.862,0,0,0,9.234,4.44H581.43" transform="translate(-111.11 -134.327)" fill="none" stroke="#000" stroke-miterlimit="10" stroke-width="7.24"/>
      <path id="Caminho_20" data-name="Caminho 20" d="M424.7,252.348s7.93-33.383,52.71-37.811,56,28.787,56,28.787L532,246.67s-58.87-23.447-91.38,10.016c0,0-11.71,5.271-15.92-4.318" transform="translate(-111.11 -132.215)" fill="#3fbdf1"/>
      <path id="Caminho_21" data-name="Caminho 21" d="M436.78,636.94l-69.65-17.272a12.4,12.4,0,0,0-12.341,3.924,12.179,12.179,0,0,0-2,12.709,12.335,12.335,0,0,0,10.544,7.478l32.93,2.154" transform="translate(-111.11 -135.185)" fill="none" stroke="#000" stroke-miterlimit="10" stroke-width="7.24"/>
      <path id="Caminho_22" data-name="Caminho 22" d="M603.58,442.584S451.45,564.921,318.71,418.81" transform="translate(-111.11 -133.715)" fill="none" stroke="#000" stroke-miterlimit="10" stroke-width="7.24"/>
      <path id="Caminho_23" data-name="Caminho 23" d="M313.94,590.354c-2.85-28.906-17.28-96.07-89.39-94.194" transform="translate(-111.11 -134.282)" fill="none" stroke="#000" stroke-miterlimit="10" stroke-width="7.24"/>
      <path id="Caminho_24" data-name="Caminho 24" d="M663.21,496.14s-13.59,3.713-18.8,12.786" transform="translate(-111.11 -134.282)" fill="none" stroke="#000" stroke-miterlimit="10" stroke-width="7.24"/>
      <line id="Linha_5" data-name="Linha 5" x2="645.91" transform="translate(0.01 802.96)" fill="none" stroke="#000" stroke-miterlimit="10" stroke-width="7.24"/>
      <path id="Caminho_25" data-name="Caminho 25" d="M539.47,294.63c6.09,5.082,10,13.381,10,22.772,0,15.585-10.91,28.192-24.39,28.192a20.7,20.7,0,0,1-4.53-.526c15.7-11.912,18.88-50.437,18.88-50.437" transform="translate(-111.11 -132.805)" fill="#3fbdf1"/>
      <path id="Caminho_26" data-name="Caminho 26" d="M450.66,356.945a60.1,60.1,0,0,0,49,1.876c44.18-18.315,42.49-72.3,37.9-101.639a55.238,55.238,0,0,0-1.56-7.048v-.05c-5.07-16.776-18.3-30.445-35.73-34.327-33.76-7.574-64.63,11.426-77.44,37.007" transform="translate(-111.11 -132.215)" fill="none" stroke="#000" stroke-miterlimit="10" stroke-width="7.24"/>
      <path id="Caminho_27" data-name="Caminho 27" d="M536.42,250.837s-.14-.2-.43-.526v-.05c-3-3.355-20.37-19.367-70.65-7.862a42.343,42.343,0,0,0-15.93,7.336,1.258,1.258,0,0,0-.3.238" transform="translate(-111.11 -132.392)" fill="none" stroke="#000" stroke-miterlimit="10" stroke-width="7.24"/>
      <path id="Caminho_28" data-name="Caminho 28" d="M402.4,331.4H377.53c-17.95,0-32.18-16.319-38.37-31.636-8.7-21.541-3.13-43.588,4.7-64.523,6.56-17.521,14.9-34.545,25.87-49.782,24.56-34.1,61.64-53.416,104.26-49.842q5.67.476,11.29,1.39c57.23,9.212,95.82,56.711,95.53,114.236a164.06,164.06,0,0,1-5.22,39.607,33.069,33.069,0,0,1-26.13,24.41" transform="translate(-111.11 -131.636)" fill="none" stroke="#000" stroke-miterlimit="10" stroke-width="7.24"/>
      <path id="Caminho_29" data-name="Caminho 29" d="M418.83,289.7a21.253,21.253,0,0,0-2.27-2.591,39.807,39.807,0,0,1-8-10.443c-2.47-4.795-4.16-9.827-3.34-15.535.92-6.135,4.54-13.52,12-12.13,3.53.675,5.41,4.03,7.44,6.621,7.72,9.927,18.35-.05,24.87-6.045" transform="translate(-111.11 -132.469)" fill="none" stroke="#000" stroke-miterlimit="10" stroke-width="7.24"/>
      <path id="Caminho_30" data-name="Caminho 30" d="M539.47,294.63c6.09,5.082,10,13.381,10,22.772,0,15.585-10.91,28.192-24.39,28.192a20.7,20.7,0,0,1-4.53-.526" transform="translate(-111.11 -132.805)" fill="none" stroke="#000" stroke-miterlimit="10" stroke-width="7.24"/>
      <path id="Caminho_31" data-name="Caminho 31" d="M487.28,313.557c5.46,3.643,18.65,6.631,16-4.169-3.18-12.8-7.46-40.134,18.75-42.218,0,0,11.54.486,17.24,4.378" transform="translate(-111.11 -132.604)" fill="none" stroke="#000" stroke-miterlimit="10" stroke-width="7.24"/>
      <path id="Caminho_32" data-name="Caminho 32" d="M497.15,335.4s-13.2,6.949-19.74-6.9" transform="translate(-111.11 -133.053)" fill="none" stroke="#000" stroke-miterlimit="10" stroke-width="7.24"/>
      <path id="Caminho_33" data-name="Caminho 33" d="M470.38,285.945c-.51,4.4,1.22,8.2,3.87,8.507s5.21-2.978,5.73-7.405-1.23-8.19-3.87-8.5-5.22,2.978-5.73,7.4" transform="translate(-111.11 -132.687)"/>
      <path id="Caminho_34" data-name="Caminho 34" d="M513.36,288.555c-.51,4.388,1.22,8.2,3.87,8.507s5.21-2.978,5.72-7.405-1.22-8.2-3.86-8.5-5.22,2.978-5.73,7.4" transform="translate(-111.11 -132.706)"/>
      <path id="Caminho_35" data-name="Caminho 35" d="M487.28,269.958s-8.08-12.369-26.39-.635" transform="translate(-111.11 -132.583)" fill="none" stroke="#000" stroke-miterlimit="10" stroke-width="7.24"/>
      <line id="Linha_6" data-name="Linha 6" y2="68.613" transform="translate(390.37 225.792)" fill="none" stroke="#000" stroke-miterlimit="10" stroke-width="7.24"/>
      <path id="Caminho_36" data-name="Caminho 36" d="M228.22,771.685s28.49-26.8,65.49-56.582c32.21-25.938,70.84-54.22,102.57-69.03,4.06-1.876,8-3.554,11.83-4.963a65.179,65.179,0,0,1,28.69-3.971,59.426,59.426,0,0,1,6.08.814" transform="translate(-111.11 -135.314)" fill="none" stroke="#000" stroke-miterlimit="10" stroke-width="7.24"/>
      <path id="Caminho_37" data-name="Caminho 37" d="M421.34,727.409h0c-31.29,9.3-51,31.259-65.87,62.081-9.89,20.469-18.45,44.005-34,60.98-15.11,16.389-32.79,30.773-53.26,40.024-37.14,16.776-82.87,15.486-107-20.995-16.32-24.737-22.74-55.47-26-84.377-5.6-50.239,12.08-191.853,89.34-290.078,24.82-31.6,55.78-58.677,94.12-76.8,26.91-12.686,57.33-20.985,91.81-23.338l9.66-49.465" transform="translate(-111.11 -133.178)" fill="none" stroke="#000" stroke-miterlimit="10" stroke-width="7.24"/>
      <line id="Linha_7" data-name="Linha 7" y2="24.797" transform="translate(540.05 778.163)" fill="none" stroke="#000" stroke-miterlimit="10" stroke-width="7.24"/>
      <line id="Linha_8" data-name="Linha 8" y2="33.651" transform="translate(106.24 769.308)" fill="none" stroke="#000" stroke-miterlimit="10" stroke-width="7.24"/>
      <path id="Caminho_38" data-name="Caminho 38" d="M449.06,317.362a30.224,30.224,0,0,1-7.48,20.28,21.031,21.031,0,0,1-8.79,1.916c-13.47,0-24.39-12.607-24.39-28.192a30.155,30.155,0,0,1,7.49-20.27,20.918,20.918,0,0,1,8.79-1.926c13.47,0,24.38,12.617,24.38,28.192" transform="translate(-111.11 -132.765)" fill="#3fbdf1"/>
      <ellipse id="Elipse_2" data-name="Elipse 2" cx="24.36" cy="28.192" rx="24.36" ry="28.192" transform="translate(289.23 156.405)" fill="none" stroke="#000" stroke-miterlimit="10" stroke-width="7.24"/>
    </g>
    <path id="Caminho_39" data-name="Caminho 39" d="M714.32,69.38a79.18,79.18,0,1,0,53.26,98.5,79.18,79.18,0,0,0-53.26-98.5ZM674.54,202.82a11.573,11.573,0,1,1,14.4-7.78A11.573,11.573,0,0,1,674.54,202.82Zm40-80.94q-.25.6-.48,1.17a258.279,258.279,0,0,1-24.09,45.59c-2.31,3.5-9.55,1.34-9.57-2.86a294.6,294.6,0,0,1,3-39c1.16-9.44.26-25.6,7.89-32.86,6.77-6.5,19.54-3.71,25.56,2.53,6.65,6.93.89,17.82-2.34,25.43Z" transform="translate(-35.737)" fill="#d7e8f0"/>
    <path id="Caminho_40" data-name="Caminho 40" d="M769.1,523.4a39.61,39.61,0,1,0,56-.48,39.61,39.61,0,0,0-56,.48Zm49.68,48.83a5.791,5.791,0,1,1-.07-8.19A5.791,5.791,0,0,1,818.78,572.23Zm-26.64-36.45c5.27,6.9,11,14,15.14,21.64,1,1.84-1.65,4.54-3.51,3.56a145.915,145.915,0,0,1-16.55-10.46c-3.9-2.72-11.26-6.11-12.68-11.18-1.29-4.52,2.93-9.51,7.1-10.71,5.12-1.46,7.84,3.77,10.5,7.15Z" transform="translate(-47.114 -3.355)" fill="#3fbdf1"/>
    <path id="Caminho_41" data-name="Caminho 41" d="M924.4,206.15a31.63,31.63,0,1,0-44.5,4.59A31.63,31.63,0,0,0,924.4,206.15Zm-43.17-35.09a4.624,4.624,0,1,1,.675,6.505,4.624,4.624,0,0,1-.675-6.505Zm23.93,27c-4.71-5.09-9.78-10.27-13.67-16.07-.94-1.39,1-3.73,2.52-3.09A117.751,117.751,0,0,1,908,186c3.3,1.87,9.41,4,10.92,7.94,1.36,3.49-1.62,7.78-4.85,9-3.99,1.54-6.55-2.41-8.91-4.94Z" transform="translate(-47.114)" fill="#3fbdf1"/>
    <path id="Caminho_42" data-name="Caminho 42" d="M610,414.69c11.16,19,10.65,32.53,7.75,54.46-1.16,8.35,7.83,14,15.12,9.8,64.41-37,124.53-7.74,201.33-25.88,28.2-6.62,63.36-20.34,87.46-42.4a71.93,71.93,0,0,0,12.27-40.18c0-60-82-108.71-183.13-108.71-64.81,0-121.75,20-154.3,50.13l-.09.09c-8.26,12.37-12.8,25.89-12.8,40C583.56,373.53,599.57,396.87,610,414.69Z" transform="translate(-47.114 -1.831)" fill="#d7e8f0"/>
    <path id="Caminho_43" data-name="Caminho 43" d="M583.85,352v1.52c.36,21,10.9,40.57,23.38,57.5,8.36,11.32,18.28,23.9,15.93,37.78-1,6.12-4.45,11.67-5.31,17.81s2.41,13.8,8.61,14.12c3.94.2,7.29-2.6,10.41-5,18.45-14.3,42.43-19.65,65.75-20.59s46.61,2.14,69.94,2.8c33.64,1,67.81-3.24,98.88-16.14,27.84-11.54,53.35-30.48,70.1-55.78,16.46-24.84,6.73-60.91-10.83-82.51-16.46-20.27-40.31-33.24-64.77-42.38-65.79-24.56-140.88-24-205.76,2.91-19.26,8-37.89,18.4-52.33,33.45C593.78,312.15,584,331.69,583.85,352Z" transform="translate(-47.114 -1.715)" fill="none" stroke="#000" stroke-miterlimit="10" stroke-width="7.24"/>
    <circle id="Elipse_3" data-name="Elipse 3" cx="25.26" cy="25.26" r="25.26" transform="translate(781.416 323.464)" fill="#fff"/>
    <circle id="Elipse_4" data-name="Elipse 4" cx="25.26" cy="25.26" r="25.26" transform="translate(708.182 323.464)" fill="#fff"/>
    <circle id="Elipse_5" data-name="Elipse 5" cx="25.26" cy="25.26" r="25.26" transform="translate(629.511 323.464)" fill="#fff"/>
  </g>
</svg>
